<?xml version="1.0" encoding="utf-8"?>
<!-- Generator: Adobe Illustrator 26.3.1, SVG Export Plug-In . SVG Version: 6.00 Build 0)  -->
<svg version="1.1" id="Laag_1" xmlns="http://www.w3.org/2000/svg" xmlns:xlink="http://www.w3.org/1999/xlink" x="0px" y="0px"
	 viewBox="0 0 1726.2 448.2" style="enable-background:new 0 0 1726.2 448.2;" xml:space="preserve">
<style type="text/css">
	.st0{stroke:#C9FFF6;stroke-miterlimit:10;}
	.st1{font-family:'CaptainComic-Bold';}
	.st2{font-size:141.6306px;}
</style>
<g>
	<g>
		<path class="st0" d="M177.3,367.2c-3.1-6.3-6.1-12.6-9.2-18.9c-0.9,7.3-1.5,14.6-2,21.9C169.8,369.2,173.5,368.2,177.3,367.2z"/>
		<path class="st0" d="M49,101.9c-3.3-7-13.7-0.9-10.3,6c2.6,5.4,5.3,10.9,7.9,16.3c2.6-3.7,5.2-7.2,8-10.8
			C52.7,109.6,50.9,105.8,49,101.9z"/>
		<path class="st0" d="M167,373.3c2.8,5.8,10.8,2.4,11.2-3c6.7-99.7,54.4-205.2,156-238.1c44.8-14.5,94.1-11,133.4,16.1
			c36.7,25.3,62.6,68.8,59,114.1c-3.6,45.8-35.7,83-71.9,108.4c-41.1,28.8-89.9,47.1-138.7,57.9c-53.3,11.8-110.3,13-162.4-5
			c-42.5-14.6-81.8-42-107.6-79.1c-25.9-37.2-35.8-82.7-27.5-127.3c5.5-29,17.5-56.4,34-80.9c-2-4.1-3.9-8.1-5.9-12.2
			c-42.4,60.1-58.7,138.1-23,206.5c21.5,41.2,58.3,73.5,100,93.4c48.8,23.3,104,29,157.3,22.5s106.9-23.3,153.9-49.4
			c39.8-22.1,77.4-53.7,94.9-96.9c17.4-43.1,8.5-91-19.4-127.5c-28.3-37.3-71.7-59.9-118.5-61.2c-48.8-1.4-96.7,18.6-133.5,49.9
			c-39.8,33.8-65.7,81.9-79.5,131.7c-5,18-8.5,36.5-10.7,55.1c3.1,6.3,6.1,12.6,9.2,18.9c-3.8,1-7.5,2-11.2,3
			c0.5-7.3,1.2-14.6,2-21.9c-36-74.3-71.9-148.6-107.8-222.9c-2.7,3.6-5.3,7.3-7.9,11C90.7,215.4,128.8,294.3,167,373.3z"/>
		<path class="st0" d="M46.6,124.2c2,4.1,3.9,8.1,5.9,12.2c2.5-3.7,5.1-7.4,7.9-11c-1.9-4-3.8-8-5.8-11.9
			C51.8,117,49.2,120.6,46.6,124.2z"/>
		<path class="st0" d="M86.2,79.9c-11.5,10.2-22.1,21.5-31.6,33.6c1.9,4,3.8,8,5.8,11.9c7.1-9.4,14.8-18.3,23.1-26.5
			c74.2-74.1,184.9-89.6,285.3-85.2c64.4,2.9,128.5,12.3,191.8,25.9c0.2-4,0.4-8.1,0.6-12.1C504,15.4,446.3,6.7,388.1,2.8
			C283.7-4.3,167.6,7.6,86.2,79.9z"/>
	</g>
</g>
<text transform="matrix(1.3091 0 0 1 197.9414 308.771)" class="st1 st2">mm</text>
</svg>
