<?xml version="1.0" encoding="utf-8"?>
<!-- Generator: Adobe Illustrator 26.3.1, SVG Export Plug-In . SVG Version: 6.00 Build 0)  -->
<svg version="1.1" id="Laag_1" xmlns="http://www.w3.org/2000/svg" xmlns:xlink="http://www.w3.org/1999/xlink" x="0px" y="0px"
	 viewBox="0 0 1920 1080" style="enable-background:new 0 0 1920 1080;" xml:space="preserve">
<style type="text/css">
	.st0{font-family:'CaptainComic-Bold';}
	.st1{font-size:141.6306px;}
</style>
<g>
	<g>
		<g>
			<path d="M94.89,198.99c42.75,88.46,85.51,176.92,128.26,265.38c2.79,5.77,10.81,2.41,11.18-3.03
				c6.72-99.68,54.43-205.23,156.04-238.1c44.81-14.5,94.06-11.03,133.41,16.07c36.66,25.26,62.55,68.75,59.01,114.1
				c-3.57,45.83-35.67,83.03-71.88,108.38c-41.1,28.77-89.94,47.06-138.68,57.86c-53.26,11.8-110.31,12.95-162.37-4.97
				c-42.49-14.62-81.81-41.96-107.6-79.07c-25.88-37.24-35.85-82.71-27.47-127.33c8.47-45.05,32.75-86.2,64.99-118.38
				c74.22-74.08,184.95-89.59,285.31-85.16c114.33,5.05,227.69,30.86,336.95,63.71c55.66,16.73,110.62,35.68,165.19,55.65
				c53.31,19.51,106.52,39.69,161.51,54.06c54.67,14.29,110.52,21.8,167.06,18.84c58.11-3.04,115.29-14.65,172.5-24.5
				c95.91-16.52,202.07-27.94,292.2,17.91c20.52,10.44,39.23,23.76,55.63,39.91c5.51,5.42,14-3.05,8.49-8.49
				c-71.42-70.35-178.84-82.42-274.23-73.1c-60.6,5.92-120.13,19.37-180.29,28.38c-61.36,9.18-122.78,12.02-184.15,1.34
				c-59.55-10.37-116.98-30-173.64-50.59c-57.47-20.89-114.81-41.99-173.11-60.49c-115.11-36.53-234.09-65.38-354.9-73.55
				c-104.34-7.06-220.43,4.82-301.91,77.14c-69.4,61.6-107.89,163.95-62.55,250.83c21.49,41.18,58.35,73.53,99.96,93.44
				c48.78,23.34,103.96,29.05,157.27,22.53c53.29-6.51,106.94-23.29,153.93-49.43c39.82-22.15,77.41-53.69,94.85-96.88
				c17.42-43.13,8.46-90.96-19.37-127.54c-28.35-37.28-71.67-59.89-118.52-61.24c-48.78-1.4-96.66,18.58-133.49,49.87
				c-39.83,33.85-65.66,81.87-79.49,131.75c-6.97,25.14-10.93,51.04-12.68,77.05c3.73-1.01,7.45-2.02,11.18-3.03
				c-42.75-88.46-85.51-176.92-128.26-265.38C101.89,185.98,91.54,192.06,94.89,198.99L94.89,198.99z"/>
		</g>
	</g>
	<text transform="matrix(1.3091 0 0 1 258.181 400.8268)" class="st0 st1">mm</text>
</g>
</svg>
