<?xml version="1.0" encoding="utf-8"?>
<!-- Generator: Adobe Illustrator 26.3.1, SVG Export Plug-In . SVG Version: 6.00 Build 0)  -->
<svg version="1.1" id="Laag_1" xmlns="http://www.w3.org/2000/svg" xmlns:xlink="http://www.w3.org/1999/xlink" x="0px" y="0px"
	 viewBox="0 0 1726.2 448.2" style="enable-background:new 0 0 1726.2 448.2;" xml:space="preserve">
<style type="text/css">
	.st0{font-family:'CaptainComic-Bold';}
	.st1{font-size:141.6306px;}
</style>
<g>
	<g>
		<g>
			<path d="M34.7,106.9c42.8,88.5,85.5,176.9,128.3,265.4c2.8,5.8,10.8,2.4,11.2-3c6.7-99.7,54.4-205.2,156-238.1
				c44.8-14.5,94.1-11,133.4,16.1c36.7,25.3,62.6,68.8,59,114.1c-3.6,45.8-35.7,83-71.9,108.4c-41.1,28.8-89.9,47.1-138.7,57.9
				c-53.3,11.8-110.3,13-162.4-5c-42.5-14.6-81.8-42-107.6-79.1c-25.9-37.2-35.8-82.7-27.5-127.3c8.5-45,32.8-86.2,65-118.4
				c74.2-74.1,184.9-89.6,285.3-85.2c114.3,5.1,227.7,30.9,337,63.7C757.5,93.1,812.4,112.1,867,132
				c53.3,19.5,106.5,39.7,161.5,54.1c54.7,14.3,110.5,21.8,167.1,18.8c58.1-3,115.3-14.6,172.5-24.5
				c95.9-16.5,202.1-27.9,292.2,17.9c20.5,10.4,39.2,23.8,55.6,39.9c5.5,5.4,14-3,8.5-8.5c-71.4-70.4-178.8-82.4-274.2-73.1
				c-60.6,5.9-120.1,19.4-180.3,28.4c-61.4,9.2-122.8,12-184.2,1.3c-59.6-10.4-117-30-173.6-50.6c-57.5-20.9-114.8-42-173.1-60.5
				C623.9,38.8,504.9,9.9,384.1,1.8C279.7-5.3,163.6,6.6,82.2,78.9C12.8,140.5-25.7,242.9,19.6,329.7c21.5,41.2,58.3,73.5,100,93.4
				c48.8,23.3,104,29,157.3,22.5c53.3-6.5,106.9-23.3,153.9-49.4c39.8-22.1,77.4-53.7,94.9-96.9c17.4-43.1,8.5-91-19.4-127.5
				c-28.3-37.3-71.7-59.9-118.5-61.2c-48.8-1.4-96.7,18.6-133.5,49.9c-39.8,33.8-65.7,81.9-79.5,131.7c-7,25.1-10.9,51-12.7,77
				c3.7-1,7.4-2,11.2-3C130.5,277.8,87.7,189.3,45,100.9C41.7,93.9,31.3,100,34.7,106.9L34.7,106.9z"/>
		</g>
	</g>
	<text transform="matrix(1.3091 0 0 1 197.9419 308.771)" class="st0 st1">mm</text>
</g>
</svg>
