<?xml version="1.0" encoding="utf-8"?>
<!-- Generator: Adobe Illustrator 26.3.1, SVG Export Plug-In . SVG Version: 6.00 Build 0)  -->
<svg version="1.1" id="Laag_1" xmlns="http://www.w3.org/2000/svg" xmlns:xlink="http://www.w3.org/1999/xlink" x="0px" y="0px"
	 viewBox="0 0 2679 804" style="enable-background:new 0 0 2679 804;" xml:space="preserve">
<style type="text/css">
	.st0{font-family:'CaptainComic-Bold';}
	.st1{font-size:254.0532px;}
</style>
<g>
	<g>
		<g>
			<path d="M53.8,191.8c66.3,158.7,132.7,317.4,199.1,476c4.3,10.4,16.8,4.3,17.4-5.4c10.4-178.8,84.5-368.1,242.2-427.1
				c69.5-26,146-19.8,207.1,28.8c56.9,45.3,97.1,123.3,91.6,204.7c-5.5,82.2-55.4,148.9-111.6,194.4
				c-63.8,51.6-139.6,84.4-215.2,103.8c-82.7,21.2-171.2,23.2-252-8.9c-65.9-26.2-127-75.3-167-141.8
				C25.1,549.5,9.6,467.9,22.6,387.9C35.7,307,73.4,233.2,123.4,175.5C238.6,42.6,410.5,14.8,566.2,22.8
				c177.4,9.1,353.4,55.4,522.9,114.3c86.4,30,171.7,64,256.4,99.8c82.7,35,165.3,71.2,250.7,97c84.8,25.6,171.5,39.1,259.3,33.8
				c90.2-5.5,178.9-26.3,267.7-43.9c148.9-29.6,313.6-50.1,453.5,32.1c31.8,18.7,60.9,42.6,86.3,71.6c8.6,9.7,21.7-5.5,13.2-15.2
				C2565.4,286,2398.7,264.3,2250.6,281c-94.1,10.6-186.4,34.7-279.8,50.9c-95.2,16.5-190.6,21.6-285.8,2.4
				c-92.4-18.6-181.6-53.8-269.5-90.7c-89.2-37.5-178.2-75.3-268.7-108.5C968.2,69.6,783.6,17.8,596.1,3.2
				C434.1-9.5,254,11.8,127.5,141.5C19.8,252-39.9,435.6,30.4,591.5c33.4,73.9,90.6,131.9,155.1,167.6
				c75.7,41.9,161.3,52.1,244.1,40.4c82.7-11.7,166-41.8,238.9-88.7c61.8-39.7,120.1-96.3,147.2-173.8
				c27-77.4,13.1-163.2-30.1-228.8c-44-66.9-111.2-107.4-183.9-109.9c-75.7-2.5-150,33.3-207.2,89.5
				c-61.8,60.7-101.9,146.9-123.4,236.3c-10.8,45.1-17,91.6-19.7,138.2c5.8-1.8,11.6-3.6,17.4-5.4
				c-66.3-158.7-132.7-317.4-199.1-476C64.6,168.5,48.6,179.4,53.8,191.8L53.8,191.8z"/>
		</g>
	</g>
	<text transform="matrix(1.1326 0 0 1 307.2041 553.8652)" class="st0 st1">mm</text>
</g>
</svg>
